<svg width="1919" xmlns="http://www.w3.org/2000/svg" height="1063.184" fill="none"><g style="fill: rgb(0, 0, 0);"><rect rx="0" ry="0" transform="matrix(1.000000, 0.000000, 0.000000, 1.000000, 0.000000, 0.000000)" width="1919" height="979.841" style="fill-rule: evenodd; clip-rule: evenodd; stroke-linejoin: round; stroke-miterlimit: 2; fill: rgb(234, 240, 243);" class="fills"/><path d="M0.000,266.934C0.000,266.934,55.563,233.201,282.089,238.823C508.616,244.445,485.846,328.872,685.991,300.665C865.505,275.366,731.541,315.516,1064.249,258.500C1299.387,218.206,1382.733,233.201,1656.212,306.287C1835.224,354.130,1919.000,311.910,1919.000,311.910L1919.000,1059.638L0.000,1059.638L0.000,266.934ZL0.000,266.934Z" style="fill-rule: evenodd; clip-rule: evenodd; stroke-linejoin: round; stroke-miterlimit: 2; fill: rgb(187, 213, 221);" class="fills"/><path d="M0.000,248.626C0.000,248.626,72.660,197.493,299.186,202.605C525.713,207.719,572.728,248.626,773.612,263.966C974.492,279.306,901.364,246.360,1072.796,202.605C1301.897,144.133,1404.410,184.913,1509.765,227.876C1551.816,245.025,1594.324,262.522,1645.521,274.193C1824.970,315.101,1919.000,289.533,1919.000,289.533L1919.000,979.840L0.000,979.841L0.000,248.626ZZ" style="fill-rule: evenodd; clip-rule: evenodd; stroke-linejoin: round; stroke-miterlimit: 2; fill: rgb(142, 185, 199);" class="fills"/><path d="M0.000,401.887C0.000,401.887,106.852,368.156,333.378,373.778C559.905,379.400,611.194,272.585,812.073,289.451C1012.960,306.316,1119.810,368.156,1295.050,362.534C1470.282,356.912,1560.109,396.266,1739.551,441.240C1919.000,486.214,1919.000,446.862,1919.000,446.862L1919.000,1059.638L0.000,1059.638L0.000,401.887ZZ" style="fill-rule: evenodd; clip-rule: evenodd; stroke-linejoin: round; stroke-miterlimit: 2; fill: rgb(0, 135, 170);" class="fills"/><path d="M0.000,537.308C0.000,537.308,76.933,542.934,303.460,548.561C529.987,554.187,508.616,475.417,709.497,492.297C910.384,509.176,1132.631,559.814,1307.870,554.187C1483.109,548.561,1555.828,458.539,1735.277,503.550C1914.727,548.561,1919.000,582.320,1919.000,582.320L1919.000,1060.566L0.000,1060.566L0.000,537.308ZZ" style="fill-rule: evenodd; clip-rule: evenodd; stroke-linejoin: round; stroke-miterlimit: 2; fill: rgb(73, 144, 165);" class="fills"/><path d="M0.000,756.936C0.000,756.936,106.852,705.109,333.378,709.821C559.905,714.532,508.616,794.628,709.497,808.762C910.384,822.897,1119.810,653.283,1295.050,648.571C1470.282,643.859,1560.109,752.224,1739.551,789.917C1919.000,827.609,1919.000,794.628,1919.000,794.628L1919.000,1063.183L0.000,1063.184L0.000,756.936ZZ" style="fill-rule: evenodd; clip-rule: evenodd; stroke-linejoin: round; stroke-miterlimit: 2; fill: rgb(0, 113, 142);" class="fills"/></g><g style="fill: rgb(0, 0, 0);" xml:space="preserve"><path d="M1648.120,125.967C1642.229,120.266,1635.049,118.501,1627.068,118.645C1631.356,125.624,1640.803,128.662,1648.120,125.967ZZM1655.216,121.623C1655.421,121.380,1655.554,121.221,1655.689,121.062C1660.190,115.775,1661.574,109.704,1660.020,103.009C1657.871,93.749,1645.781,85.597,1634.071,91.569C1628.189,94.570,1625.006,99.592,1624.051,106.057C1623.818,107.645,1623.768,109.252,1624.096,110.839C1636.262,109.213,1646.486,113.102,1655.216,121.623ZZM1663.493,138.065C1660.782,137.346,1658.510,135.736,1656.519,133.795C1656.319,133.601,1655.994,133.278,1655.994,133.278C1655.994,133.278,1655.590,133.488,1655.334,133.623C1638.656,142.395,1617.750,132.329,1614.215,113.839C1611.265,98.412,1621.209,83.262,1636.579,80.278C1648.532,77.958,1658.191,82.183,1665.467,91.765C1669.589,97.195,1671.283,103.469,1670.713,110.269C1670.146,117.033,1667.458,122.902,1662.837,127.883C1662.679,128.053,1662.515,128.221,1662.360,128.396L1662.216,128.538C1664.335,130.098,1666.781,130.555,1669.458,130.075C1669.458,130.449,1669.455,130.718,1669.458,130.987C1669.475,133.436,1669.492,135.885,1669.509,138.335C1669.509,138.335,1665.694,138.649,1663.493,138.065ZZ" style="fill-rule: nonzero; clip-rule: evenodd; stroke-linejoin: round; stroke-miterlimit: 2; fill: rgb(63, 59, 59); fill-opacity: 1;" class="fills"/><path d="M1809.759,79.654C1793.951,79.654,1781.135,92.451,1781.135,108.238C1781.135,124.023,1793.951,136.820,1809.759,136.820C1825.568,136.820,1838.384,124.023,1838.384,108.238C1838.384,92.451,1825.568,79.654,1809.759,79.654ZZM1809.759,126.948C1799.626,126.948,1791.412,118.571,1791.412,108.238C1791.412,97.904,1799.626,89.526,1809.759,89.526C1819.893,89.526,1828.107,97.904,1828.107,108.238C1828.107,118.571,1819.893,126.948,1809.759,126.948ZZ" style="fill-rule: nonzero; clip-rule: evenodd; stroke-linejoin: round; stroke-miterlimit: 2; fill: rgb(63, 59, 59); fill-opacity: 1;" class="fills"/><path d="M1775.382,117.069C1774.458,118.081,1773.601,119.047,1772.706,119.959C1767.952,124.803,1762.348,127.615,1755.375,127.153C1752.057,126.934,1748.979,126.085,1746.373,123.911C1746.150,123.724,1745.946,123.516,1745.707,123.293C1757.580,113.169,1769.385,103.101,1781.314,92.927C1779.377,90.993,1777.551,89.087,1775.637,87.274C1770.804,82.694,1765.143,80.009,1758.391,79.695C1752.742,79.433,1747.412,80.425,1742.473,83.225C1731.931,89.203,1726.251,101.635,1728.747,113.499C1730.567,122.148,1735.116,128.975,1742.869,133.443C1748.384,136.620,1754.387,137.546,1760.665,136.820C1766.133,136.188,1770.967,134.080,1775.113,130.450C1775.211,130.364,1775.302,130.248,1775.382,130.124L1775.382,117.069ZZM1739.890,115.994C1739.489,114.657,1739.043,113.485,1738.788,112.272C1736.942,103.458,1740.862,95.775,1747.675,91.920C1753.770,88.473,1759.953,88.467,1765.943,92.396C1766.157,92.536,1766.354,92.699,1766.653,92.922C1757.765,100.584,1748.914,108.213,1739.890,115.994ZZ" style="fill-rule: nonzero; clip-rule: evenodd; stroke-linejoin: round; stroke-miterlimit: 2; fill: rgb(63, 59, 59); fill-opacity: 1;" class="fills"/><path d="M1607.843,117.069C1606.919,118.081,1606.062,119.047,1605.167,119.959C1600.414,124.803,1594.809,127.615,1587.836,127.153C1584.519,126.934,1581.440,126.085,1578.834,123.911C1578.611,123.724,1578.407,123.516,1578.169,123.293C1590.041,113.169,1601.846,103.101,1613.775,92.927C1611.838,90.993,1610.012,89.087,1608.097,87.274C1603.265,82.694,1597.604,80.009,1590.852,79.695C1585.203,79.433,1579.873,80.425,1574.934,83.225C1564.392,89.203,1558.713,101.635,1561.209,113.499C1563.028,122.148,1567.578,128.975,1575.331,133.443C1580.845,136.620,1586.848,137.546,1593.125,136.820C1598.594,136.188,1603.428,134.080,1607.575,130.450C1607.673,130.364,1607.763,130.248,1607.843,130.124L1607.843,117.069ZZM1572.351,115.994C1571.950,114.657,1571.504,113.485,1571.249,112.272C1569.404,103.458,1573.323,95.775,1580.136,91.920C1586.231,88.473,1592.414,88.467,1598.405,92.396C1598.617,92.536,1598.816,92.699,1599.113,92.922C1590.226,100.584,1581.376,108.213,1572.351,115.994ZZ" style="fill-rule: nonzero; clip-rule: evenodd; stroke-linejoin: round; stroke-miterlimit: 2; fill: rgb(63, 59, 59); fill-opacity: 1;" class="fills"/><path d="M1724.285,79.654L1713.886,79.654L1713.886,108.826C1713.864,110.409,1713.801,111.995,1713.636,113.567C1713.332,116.466,1712.480,119.201,1710.537,121.458C1707.524,124.960,1703.783,126.662,1699.492,126.571C1695.200,126.662,1691.460,124.960,1688.446,121.458C1686.503,119.201,1685.652,116.466,1685.347,113.567C1685.182,111.995,1685.119,110.409,1685.097,108.826L1685.097,79.654L1674.699,79.654L1674.699,80.424C1674.699,90.233,1674.683,100.042,1674.706,109.850C1674.707,110.350,1674.734,110.850,1674.774,111.349L1674.774,111.465C1674.774,119.624,1677.300,125.356,1681.624,129.727C1685.956,134.104,1691.661,136.833,1699.451,136.833C1699.465,136.833,1699.478,136.832,1699.492,136.832C1699.506,136.832,1699.519,136.833,1699.533,136.833C1707.323,136.833,1713.027,134.104,1717.359,129.727C1721.684,125.356,1724.210,119.624,1724.210,111.465L1724.210,111.349C1724.250,110.850,1724.276,110.350,1724.277,109.850C1724.301,100.042,1724.285,90.233,1724.285,80.424L1724.285,79.654ZZ" style="fill-rule: nonzero; clip-rule: evenodd; stroke-linejoin: round; stroke-miterlimit: 2; fill: rgb(63, 59, 59); fill-opacity: 1;" class="fills"/></g></svg>